<svg width="1200" height="1320" viewBox="0 0 1200 1320" fill="none" xmlns="http://www.w3.org/2000/svg">
<g clip-path="url(#clip0_190_51)">
<path d="M56.2791 788.399L54.2391 788.879L54.3591 787.919L54.1191 786.479L56.0391 785.879L56.2791 787.319V788.399Z" fill="#EBFFE8" stroke="white" stroke-width="2" stroke-linecap="round" stroke-linejoin="round"/>
<path d="M1034.28 327.959H1034.16L615.96 620.399L460.68 638.039L399.36 614.759L396.96 613.919H396.72L393.96 570.359L392.4 543.959L390.72 517.559L389.52 510.719L384.72 497.039L383.76 490.319L384.96 483.239L388.2 476.399L396.48 464.639L398.4 462.119L408.12 455.399L420.36 446.879L430.92 439.559L437.04 435.239L443.04 433.199L459.48 430.799L462.96 429.839L484.44 419.519L494.4 416.759L495.72 415.079L496.08 411.359V142.319H505.92H801.12H810.96H819.24L821.16 141.719L821.76 140.399V135.479V133.919V129.719V114.479V104.399V93.1192V80.9992V55.9192V43.7992L821.64 32.5192V22.3192V13.6792V6.95922V2.75922V1.19922L840.96 14.0392L860.28 26.7592L879.6 39.5992L899.04 52.3192L918.36 65.0392L937.68 77.7592L957 90.4792L976.32 103.199L995.64 115.919L1014.96 128.519L1034.28 141.239L1053.6 153.839L1070.04 164.519L1086.36 175.319L1102.8 185.999L1119.12 196.679L1131 204.359L1147.92 215.879L1164.84 227.519L1181.88 239.039L1198.8 250.559L1177.2 250.679H1112.28H1090.68H1025.76L1026.72 259.319L1028.52 276.479L1029.48 284.999L1030.44 293.519L1031.4 302.159L1033.32 319.199L1034.28 327.959Z" fill="#EBFFE8" stroke="black" stroke-width="2" stroke-linecap="round" stroke-linejoin="round"/>
<path id="3" d="M467.28 1060.44L465.72 1061.16L464.64 1062.36L464.52 1064.16L463.559 1065.36L459.72 1065.96L456.6 1067.28L454.8 1069.2L451.68 1069.56L449.52 1071.36L447 1076.16L444.359 1077.36L442.32 1077.84L440.52 1078.8L439.44 1079.64L438.24 1080.24L437.04 1079.88H435.72L431.4 1081.2L430.44 1082.16L429.359 1083L426.48 1083.72L419.4 1091.88L418.44 1093.68L417.6 1095.84L417.72 1099.56L417.12 1103.04L416.88 1106.76L412.32 1113.6L410.4 1117.56L408.96 1122.84L406.559 1127.76L398.28 1130.88L389.16 1131.84L384.48 1137.48L383.88 1145.64L382.08 1148.4L342.24 1159.2L338.04 1161L336.96 1165.2L336.48 1169.64L334.56 1171.92L331.68 1173.6L329.759 1174.32L330.24 1172.64L330.48 1171.32L329.52 1171.2H328.68L327.72 1171.44L326.88 1171.92L326.16 1172.64L324.48 1175.16L323.76 1175.88L322.2 1177.2L320.64 1178.04L319.8 1178.4H319.08L318.24 1178.28L317.4 1177.68L316.56 1176.96L315.96 1176L315.48 1175.04L314.64 1172.28L314.16 1171.44L313.56 1170.84L312 1169.64L311.16 1169.16L307.32 1167.96L305.64 1167.12L305.28 1165.44L305.88 1163.64L305.76 1162.8L305.4 1161.84L304.44 1160.64L304.2 1159.92L304.44 1159.08L305.04 1157.52L304.92 1156.8L304.32 1156.08L303.48 1155.6L301.56 1154.88L300.72 1154.28L298.92 1152.24L298.32 1151.64L295.08 1149.72L289.2 1144.44L285.96 1140.48L283.68 1138.92L282.96 1138.2L281.28 1136.04L280.44 1135.56L279.36 1135.32L277.08 1135.2L276 1134.72L275.52 1133.88L275.4 1132.08L275.04 1131.36L274.08 1130.88L270.36 1131.24L269.4 1130.76L269.28 1130.04L269.76 1128L269.88 1126.92L269.4 1126.2L268.68 1125.6L262.44 1123.2L260.52 1123.32L259.56 1123.68L257.04 1125.24L256.08 1125.72L255.12 1125.96L254.04 1126.08H252.96L249 1125.24H247.92L243.84 1126.44H242.76L241.68 1126.32L238.92 1125L238.08 1124.76H237.12L233.88 1125.6L232.68 1125.72L216 1124.52L213 1125.24L211.2 1125L210.24 1123.68L209.52 1122.24L211.08 1120.2L220.68 1113.96L234 1106.52L241.56 1103.28L244.56 1100.64L246.6 1097.76L270.96 1079.52L306.24 1026.72L328.2 1006.56L355.559 986.04L432.24 928.68L450.84 957.84L448.079 986.28L446.759 1003.56H447.12L444.359 1038.24L457.559 1052.16L467.28 1060.44Z" fill="#119706" stroke="black" stroke-width="2" stroke-linecap="round" stroke-linejoin="round"/>
<path d="M68.2792 820.801H67.9192L68.3992 819.121L71.7592 812.761L75.4792 807.481L76.5592 807.241L77.3992 808.081L76.1992 810.001L74.6392 811.561L73.4392 812.881L71.7592 815.881L68.2792 820.801ZM60.1192 811.921L59.5192 812.761L58.7992 812.161L58.3192 809.881L58.7992 807.841L60.2392 807.241L60.9592 807.361V808.441L60.7192 810.481L60.1192 811.921ZM73.9192 794.281L70.9192 808.321L68.5192 814.801L64.5592 820.681L62.8792 818.521L62.5192 817.801L62.6392 816.961L62.8792 816.001V815.041L62.1592 813.961L61.4392 812.041L62.1592 810.121L64.9192 805.801L65.1592 805.441L65.0392 802.321L65.1592 801.481L65.9992 799.561L67.1992 797.881L68.6392 797.401L69.9592 798.721L71.7592 794.521L73.0792 792.961L73.9192 794.281ZM62.9992 719.401L62.3992 719.761L61.1992 719.281L60.4792 717.361L60.9592 715.801L61.9192 715.201L62.7592 715.441L63.2392 716.041L62.9992 719.401ZM273.359 639.961L285.239 659.761L122.519 659.161L147.959 702.361L84.5992 821.761L79.1992 831.721L75.5992 836.161L74.9992 835.921L75.2392 835.561L77.5192 831.601L78.1192 829.561L78.9592 828.241L79.1992 827.521L78.8392 826.801L78.2392 826.441L77.6392 826.321L77.2792 826.801L76.7992 826.681L71.3992 832.681L68.5192 834.961L72.5992 826.441L71.1592 827.161L67.1992 830.521L65.8792 832.081L65.1592 833.041L64.5592 834.241L64.4392 835.441L64.9192 836.641V837.241L64.0792 839.281L63.8392 840.241L63.5992 840.481L62.9992 840.721H62.3992L61.7992 840.601L61.4392 840.241L61.3192 840.121V839.761L61.1992 839.161L60.9592 838.321L61.0792 835.801L61.1992 834.961L62.1592 833.281L64.6792 830.641L65.1592 828.841L65.5192 826.681L66.4792 825.601L67.7992 824.761L69.2392 823.561L78.5992 809.281L79.1992 808.801L79.7992 808.321L80.3992 807.841L80.5192 806.761L80.6392 804.721L80.9992 804.001L81.5992 803.641L81.8392 803.281L83.5192 801.361L83.9992 800.761V799.681L83.7592 798.721L83.2792 797.881L82.5592 797.161L83.3992 796.561L83.8792 795.721L83.9992 794.761V793.681L82.4392 794.521L81.9592 795.121L81.5992 793.441L83.0392 790.921L82.5592 789.361L80.7592 788.281L79.5592 789.121L78.8392 790.681L78.5992 791.521L76.9192 792.481L76.3192 792.001L76.1992 790.801L76.5592 789.361L77.1592 788.281L77.7592 787.321L83.5192 781.441L85.0792 778.921L85.9192 775.801L85.4392 773.281L82.5592 768.001L81.3592 765.121L82.0792 765.241L82.7992 765.121L83.3992 764.881L83.9992 764.401L86.1592 761.041L86.9992 759.001L87.3592 756.961L86.9992 755.041L86.3992 753.481L83.6392 749.161L83.0392 748.801L81.5992 748.681L80.6392 748.201L80.2792 747.241L79.9192 746.281L79.5592 745.801L77.9992 744.841L75.2392 738.001L74.3992 737.041L73.4392 736.441L72.8392 735.841L72.5992 734.761L72.8392 734.401L73.4392 734.161L73.7992 733.921L73.5592 733.321L73.3192 732.961L72.7192 731.641L72.2392 729.721L68.6392 720.001L67.6792 718.561L66.2392 717.961L65.3992 716.641L65.2792 714.001L64.7992 712.201L63.2392 712.921L61.1992 711.601V710.761L65.6392 709.561L66.8392 708.961L64.9192 708.721L61.4392 709.201L59.8792 708.961L58.5592 707.281L59.2792 706.561L57.8392 703.561L57.2392 703.081L55.0792 702.241L54.4792 706.801L55.1992 716.881L53.8792 720.841L52.7992 719.281L51.5992 718.081L49.0792 716.521L48.3592 715.561L47.0392 713.161L46.0792 711.961L44.8792 711.001L41.8792 709.441L41.1592 708.721L41.0392 707.521L41.5192 706.921L42.1192 706.801L42.4792 706.561L42.3592 705.601L41.8792 704.761L41.7592 704.041L41.2792 702.481L40.1992 701.161L37.4392 699.001L37.0792 698.161V696.241L36.7192 695.401L35.1592 693.601L33.9592 688.681L33.3592 687.481L32.3992 686.281L31.6792 684.721L31.3192 683.041L31.0792 681.481L30.7192 681.961L29.9992 682.441L29.7592 682.921L28.3192 681.481L27.8392 679.921L27.4792 678.241L26.9992 676.441L26.3992 675.601L25.5592 674.881L24.7192 673.921L24.3592 672.481L23.8792 671.401L21.4792 668.161L20.9992 666.721L20.7592 665.281L20.2792 663.601L19.0792 660.601L17.1592 658.321L15.8392 659.041L13.3192 663.841L9.11922 669.601L8.15922 670.441L7.55922 671.641L8.27922 673.561L9.35922 672.961L9.47922 674.761L8.87922 678.601L8.75922 681.961L8.27922 682.921L7.31922 683.521L5.15922 684.241L4.31922 685.081L4.19922 685.921L4.67922 686.761L5.63922 687.841L6.35922 689.521V690.241V691.441L5.39922 695.881L4.55922 698.161L3.59922 699.361L1.19922 688.081L1.55922 684.961L3.83922 675.361L4.55922 672.121L8.63922 660.121L10.5592 650.041L12.2392 640.921L13.1992 640.081H28.5592H39.9592H80.6392H107.879H138.239H170.759L204.239 639.961H237.839H273.359Z" fill="#EBFFE8" stroke="black" stroke-width="2" stroke-linecap="round" stroke-linejoin="round"/>
<path d="M285.24 659.76L287.16 662.52L280.68 838.68V854.4L280.56 882.96H276.6L86.2805 883.44L83.5205 876.72L79.2005 869.52L73.4405 862.8L71.6405 861L71.1605 860.76L70.8005 860.04L70.0805 859.92L69.1205 859.8L68.2805 859.32L66.6005 858.24L62.7605 857.16L61.2005 856.2L60.4805 855L58.8005 850.56L58.5605 848.76L57.4805 846.72L55.6805 845.16L54.4805 843.6L55.8005 841.92L61.5605 843.48L66.9605 842.76L71.7605 840L75.0005 835.92L75.6005 836.16L79.2005 831.72L84.6005 821.76L147.96 702.36L122.52 659.16L285.24 659.76Z" fill="#EBFFE8" stroke="black" stroke-width="2" stroke-linecap="round" stroke-linejoin="round"/>
<path id="1" d="M103.68 997.682L104.4 990.122L103.32 971.522L100.92 945.842L101.88 945.962L128.16 945.602L128.28 969.122L128.16 997.682H103.68Z" fill="#EBFFE8" stroke="black" stroke-width="2" stroke-linecap="round" stroke-linejoin="round"/>
<path id="2" d="M432.241 928.681L355.561 986.041L328.201 1006.56L306.241 1026.72L270.961 1079.52L246.601 1097.76L244.561 1100.64L241.561 1103.28L234.001 1106.52L220.681 1113.96L211.081 1120.2L209.521 1122.24L209.401 1122L208.081 1120.68L207.001 1120.08L204.841 1121.04L203.881 1121.64L203.161 1122.6L202.921 1124.04L202.681 1124.64L202.201 1125.36L201.601 1125.72L200.881 1126.08L200.161 1126.2L199.441 1125.96L198.481 1124.88L197.641 1123.8L196.801 1122.72L195.361 1122.36L194.041 1122.72L193.201 1123.68L192.961 1125L193.561 1126.44L195.121 1128L195.481 1128.6L195.361 1129.32L195.001 1129.92L194.401 1130.4L192.241 1131.12L181.801 1132.8L180.241 1132.92L175.561 1132.2H172.441L170.881 1132.56L166.801 1134.36L165.481 1134.72H164.041L162.841 1134.12L162.121 1133.28L161.521 1132.2L160.681 1131.36L159.121 1131.24L157.801 1131.96L156.601 1133.04L154.201 1136.4L153.241 1137.36L152.041 1137.96L150.601 1138.08L146.401 1137.24L144.961 1137.48L143.761 1138.2L141.601 1140.12L140.281 1140.96L138.841 1141.44L137.401 1141.56L135.841 1141.2L133.561 1140.12L132.721 1139.88L129.481 1139.64L125.041 1138.2L123.481 1138.08L121.081 1138.56H120.241L116.881 1137.72L115.561 1137.84L111.601 1139.64L110.881 1139.76L110.281 1139.64L109.081 1139.16L108.241 1139.04L107.521 1139.16L106.801 1139.52L106.081 1140L103.801 1140.36L101.521 1140.12L99.6009 1139.04L97.9209 1137.36L96.7209 1135.56L96.0009 1134.84L95.1609 1134.24L93.8409 1134L92.7609 1134.24L91.5609 1134.72L88.6809 1136.76L87.7209 1137.24L86.6409 1137.48L85.5609 1137.36L82.3209 1136.76L80.0409 1137.24L78.0009 1138.56L76.2009 1140.24L74.8809 1142.16L74.0409 1144.08L73.5609 1148.16L69.6009 1165.44L69.1209 1166.64L68.5209 1167.6L67.0809 1168.68L63.4809 1169.52L62.0409 1170.72L61.3209 1172.76L60.8409 1179.72L59.1609 1183.8L57.8409 1188.24L57.2409 1189.44L57.0009 1200.48L56.0409 1206.12L53.8809 1209.96L55.3209 1192.8L55.0809 1183.8L54.1209 1163.28L55.0809 1156.68L55.8009 1154.88L58.5609 1149.6L59.2809 1144.56L60.1209 1143L61.2009 1140.36V1129.32L61.9209 1124.88L69.7209 1104.84L71.8809 1101.36L73.3209 1094.4L75.0009 1091.04L79.6809 1084.44L87.9609 1066.08L88.5609 1063.56L90.0009 1061.76L99.1209 1032.84L102.001 1020.24L102.721 1006.56L103.681 997.681H128.161L128.281 969.121L128.161 945.601L101.881 945.961L100.921 945.841L100.081 936.241L99.0009 932.521L93.9609 921.361L91.5609 908.521L89.8809 904.321L90.8409 901.921L90.6009 899.041L86.8809 884.761L86.2809 883.441L276.601 882.961H280.561H376.081L432.241 928.681Z" fill="#119706" stroke="black" stroke-width="2" stroke-linecap="round" stroke-linejoin="round"/>
<path d="M587.521 1014.48L586.321 1017.84L586.081 1021.2L587.641 1024.56L589.561 1034.88L596.041 1048.56L596.521 1052.16L595.801 1055.76L597.121 1059.48L596.641 1061.52L595.801 1063.32L594.241 1072.08L595.081 1074.24L596.641 1075.8L597.241 1078.32L595.681 1090.68V1093.56L596.161 1096.32L596.281 1098.12L595.921 1099.92L597.241 1102.32L596.521 1103.76L595.561 1105.08L596.161 1107.36L598.201 1108.68L600.361 1111.32L600.841 1112.76L601.561 1114.08L603.361 1114.2L605.281 1115.04L606.721 1116.84L607.801 1118.52L607.561 1122L609.001 1125L611.041 1128L613.921 1129.32L615.481 1129.56L617.041 1130.04L619.921 1128.6L621.001 1129.92L622.561 1129.32L624.001 1128.96L624.601 1129.92L624.481 1131.24L623.281 1132.68L621.001 1132.8V1135.32L618.721 1136.88L617.881 1138.68L612.841 1141.44H610.801L609.121 1141.92L607.681 1143.12L608.641 1145.52L612.601 1146.72L613.801 1147.44L614.041 1149.6L613.201 1151.88L612.361 1152.84L611.761 1153.92L611.281 1156.8L610.681 1158.24L610.441 1159.8L611.641 1162.2L610.801 1163.64L611.161 1165.2L614.401 1166.4L617.161 1168.68L618.721 1171.68L618.961 1175.04L618.481 1177.92L618.361 1180.68L617.281 1182.48V1185.24L616.921 1185.96L618.841 1188L624.961 1192.92L627.841 1196.76L635.761 1248.6H635.521L633.601 1248.96H629.521L623.641 1248L622.081 1248.12L621.001 1249.08L620.641 1251L620.761 1255.2L620.041 1257.36L619.201 1258.2L617.641 1259.04L616.561 1260.72L615.721 1260.84H614.761L613.681 1261.2L612.121 1262.76L611.401 1264.44L610.441 1268.16L609.361 1269.96L606.721 1272.36L605.881 1274.04L604.441 1279.8L603.481 1281.48L600.361 1276.56L596.641 1272.96L594.001 1267.68L590.761 1264.56L566.161 1246.2L564.241 1244.16L555.241 1230.96L552.721 1228.8L550.441 1227.84L544.921 1226.64L544.081 1226.76H543.721L543.961 1227.24L544.201 1227.6L544.441 1227.84L544.921 1228.08L545.161 1228.56V1229.04V1229.64L544.921 1230.12L544.081 1231.08L542.881 1231.68L540.241 1232.4L538.681 1233.36L535.201 1237.08L532.321 1238.64L529.681 1238.4L527.161 1237.56L526.681 1237.44L527.521 1233.24L529.921 1228.56L530.401 1223.4L531.601 1218.36L535.441 1214.16L536.281 1211.64L536.761 1209.12L536.881 1207.68L537.481 1206.48L539.641 1204.8L540.841 1202.28L540.601 1201.32L540.481 1200.24L541.201 1198.68L542.281 1197.36L544.801 1196.04L546.361 1193.64L535.921 1191.96L529.081 1187.4L527.641 1187.04L526.201 1187.4L524.521 1187.04L523.201 1185.96L518.161 1186.68L517.081 1185.6L515.881 1184.88L515.041 1186.44L515.521 1188.84L516.601 1191L517.441 1193.28L516.721 1194.96L515.401 1195.92L514.081 1196.4L513.481 1198.08L513.721 1199.76H511.681L509.041 1199.4L506.281 1199.76L503.761 1200.48L501.961 1199.4L500.041 1197.24L497.041 1196.64L495.721 1192.56L496.561 1185.24L494.401 1185.36L492.481 1184.76L491.401 1183.2L487.921 1179.6L483.601 1178.28L482.881 1179L482.521 1179.6L480.841 1179L479.281 1178.04L475.801 1178.16L474.721 1176.12L474.121 1168.08L472.561 1166.4L470.281 1165.92L468.721 1164.84L467.041 1164.36L465.121 1164.96L463.321 1165.92L459.601 1169.28L455.761 1169.64L455.281 1166.52L457.201 1159.56L457.081 1155.36L456.481 1153.8L456.241 1150.32L455.521 1148.64L455.641 1145.4L451.921 1144.32L433.321 1141.08L430.921 1141.92L428.761 1144.08L427.321 1144.32L426.121 1143.72H424.441L423.121 1143.84L422.641 1141.92V1140.24L424.561 1138.44L425.641 1136.16V1134.24L424.201 1132.92L423.361 1130.64L423.001 1128.12L421.441 1125.12L418.561 1123.44L416.281 1121.88L415.801 1119.48L416.041 1114.92L417.361 1110.6L419.281 1106.64L417.121 1103.04L417.721 1099.56L417.601 1095.84L418.441 1093.68L419.401 1091.88L426.481 1083.72L429.361 1083L430.441 1082.16L431.401 1081.2L435.721 1079.88H437.041L438.241 1080.24L439.441 1079.64L440.521 1078.8L442.321 1077.84L444.361 1077.36L447.001 1076.16L449.521 1071.36L451.681 1069.56L454.801 1069.2L456.601 1067.28L459.721 1065.96L463.561 1065.36L464.521 1064.16L464.641 1062.36L465.721 1061.16L467.281 1060.44L476.641 1069.44L492.361 1075.32L506.401 1079.76L521.761 1074.36L539.521 1075.92L543.721 1070.4L543.841 1063.68L544.561 1049.4L547.201 1043.76L545.521 1038.12L549.481 1036.44L548.881 1032.48L545.041 1031.52L547.921 1029.72L551.041 1027.68L554.041 1026.84L554.641 1023.72L553.201 1020.96L553.801 1020.24L553.681 1019.4L552.721 1017.72L550.921 1015.08L547.201 1011.24L546.721 1009.92L543.601 1004.88L545.761 1005L542.041 997.921L539.641 993.601L539.161 992.521L537.121 990.601L538.441 987.601L541.561 985.921L541.681 980.881L547.201 981.241L547.681 978.121L550.561 977.881L556.801 978.121L559.561 978.601L560.521 978.241L561.361 979.201L563.641 979.441L566.161 977.761L571.801 975.961L574.441 976.201L575.401 974.041L578.761 969.481L576.241 966.961L578.881 965.041L582.001 961.321L585.121 959.041L592.201 956.041L595.081 956.161L598.081 954.121L587.521 1014.48Z" fill="#EBFFE8"  stroke="black" stroke-width="2" stroke-linecap="round" stroke-linejoin="round"/>
<path id="5"  d="M526.68 1237.44L524.28 1237.08V1240.56L524.04 1241.64L521.52 1244.4L520.2 1247.64L518.76 1254.84L515.4 1261.92L515.04 1263.6L514.44 1268.4L512.64 1273.8L512.4 1275.96L512.52 1276.92L512.76 1278.24L512.64 1279.32L511.56 1283.4L511.32 1286.52L511.2 1287L512.16 1287.72L512.76 1287.48L513.24 1287H513.84L515.04 1287.96L515.76 1289.04L516 1290.48L515.76 1292.4L515.04 1293.96L514.56 1295.76L514.08 1299.36L514.2 1299.96L514.44 1300.44L515.16 1301.4V1302L514.56 1302.36L513.84 1302.6L513.48 1302.72L513.12 1303.2L512.64 1303.8L512.16 1304.4L511.8 1305.36L510.96 1306.68L509.52 1308L507.72 1308.96L503.76 1309.8L502.44 1311L500.16 1314.24L498.36 1315.44L496.44 1315.92H494.52L492.72 1315.44L492 1316.04L491.52 1317.6L490.68 1318.8L489.6 1318.2L485.52 1314.48L483.96 1313.76L481.92 1314.12L477.72 1315.56L475.56 1315.92L473.4 1315.56L471.72 1314.72L466.32 1310.4L460.2 1307.52L458.52 1306.08L455.16 1302.12L453.84 1301.28V1300.2L451.56 1292.16L451.08 1291.2L450.24 1290.24L449.16 1289.64L446.88 1289.04L445.8 1288.44L444.12 1287.12L438.72 1284L437.52 1282.32L436.68 1281.6L435.84 1281.24L434.28 1281.48L431.16 1282.44L430.08 1282.56L427.56 1281.48L424.68 1278.72L428.64 1264.56L431.64 1257.84L440.16 1243.92L445.44 1237.2L447.6 1236L449.28 1234.32L450 1230.36L452.28 1225.2L468.96 1209.96L471 1207.08L472.2 1204.56L474.36 1202.64L478.8 1201.44L483.72 1202.16L490.32 1198.92L497.04 1196.64L500.04 1197.24L501.96 1199.4L503.76 1200.48L506.28 1199.76L509.04 1199.4L511.68 1199.76H513.72L513.48 1198.08L514.08 1196.4L515.4 1195.92L516.72 1194.96L517.44 1193.28L516.6 1191L515.52 1188.84L515.04 1186.44L515.88 1184.88L517.08 1185.6L518.16 1186.68L523.2 1185.96L524.52 1187.04L526.2 1187.4L527.64 1187.04L529.08 1187.4L535.92 1191.96L546.36 1193.64L544.8 1196.04L542.28 1197.36L541.2 1198.68L540.48 1200.24L540.6 1201.32L540.84 1202.28L539.64 1204.8L537.48 1206.48L536.88 1207.68L536.76 1209.12L536.28 1211.64L535.44 1214.16L531.6 1218.36L530.4 1223.4L529.92 1228.56L527.52 1233.24L526.68 1237.44Z" fill="#119706" stroke="black" stroke-width="2" stroke-linecap="round" stroke-linejoin="round"/>
<path id="4" d="M497.039 1196.64L490.319 1198.92L483.719 1202.16L478.799 1201.44L474.359 1202.64L472.199 1204.56L470.999 1207.08L468.959 1209.96L452.279 1225.2L449.999 1230.36L449.279 1234.32L447.599 1236L445.439 1237.2L440.159 1243.92L431.639 1257.84L428.639 1264.56L424.679 1278.72L423.839 1277.88L421.439 1277.16L421.319 1276.8L420.959 1275.96V1275.12L421.439 1272.6V1271.76L421.199 1270.92L420.719 1270.2L419.759 1269.6L418.799 1269.36H417.719L415.679 1269.84L414.719 1269.72L413.879 1269.48L413.039 1268.76L410.759 1266.48L410.159 1265.28L411.239 1264.56L414.479 1264.92L416.159 1264.56L416.639 1263.24L416.039 1261.56L414.839 1260.24L408.959 1256.16L407.759 1254.96L407.039 1253.4L406.559 1251.72V1248.36L406.439 1247.52L405.959 1246.8L404.999 1245.48L404.639 1244.76L404.279 1242L403.919 1241.16L403.319 1240.32L401.759 1239.6L400.319 1239.84L398.879 1240.68L397.559 1241.64L396.119 1242.6L394.679 1242.84L391.679 1242L391.079 1241.64L390.839 1240.68L390.599 1239.84V1238.88L391.079 1235.04L390.959 1233.72L390.239 1232.52L389.159 1231.44L387.959 1230.84L385.679 1230.12L384.959 1229.88L383.159 1228.56L382.439 1228.32L380.999 1228.2L378.119 1228.68L376.679 1228.8L375.719 1226.28L375.599 1225.32L375.719 1224.48L376.079 1223.64L377.519 1221.36L377.639 1220.64L377.519 1219.8L377.159 1218.96L376.079 1217.4L375.359 1216.68L374.639 1216.08L373.079 1215.12L372.479 1214.64L371.879 1213.92L371.759 1213.08L371.999 1212.24L372.359 1211.28L372.599 1210.44L372.479 1208.52L371.999 1206.72L371.159 1205.16L369.479 1203.12L368.999 1202.52L368.759 1201.8V1200.96L369.119 1199.28L369.239 1198.44L368.999 1197.6L368.399 1196.76L365.999 1194.84L365.159 1194L364.439 1193.04L363.719 1191.96L362.399 1188.6L362.279 1187.76L362.159 1185.96L361.919 1185.24L361.319 1184.52L358.679 1182.6L358.199 1182L357.359 1180.68L356.879 1180.2L355.439 1180.08L351.839 1181.52L350.879 1180.8L350.999 1179.24L352.679 1176.12L352.559 1174.68L351.839 1174.56L351.359 1174.68L350.759 1174.8L349.439 1175.4L344.279 1176.48L341.279 1177.68L340.559 1177.92L340.199 1178.04H338.399L337.799 1178.16L335.159 1179.6L334.559 1179.72L333.839 1179.6L333.599 1179.48L332.999 1178.88L332.759 1178.76L332.159 1178.52L331.919 1178.4L331.799 1178.28L331.559 1177.92V1177.68L331.079 1177.44L329.999 1176.96L329.639 1176.72L329.279 1175.64L329.759 1174.32L331.679 1173.6L334.559 1171.92L336.479 1169.64L336.959 1165.2L338.039 1161L342.239 1159.2L382.079 1148.4L383.879 1145.64L384.479 1137.48L389.159 1131.84L398.279 1130.88L406.559 1127.76L408.959 1122.84L410.399 1117.56L412.319 1113.6L416.879 1106.76L417.119 1103.04L419.279 1106.64L417.359 1110.6L416.039 1114.92L415.799 1119.48L416.279 1121.88L418.559 1123.44L421.439 1125.12L422.999 1128.12L423.359 1130.64L424.199 1132.92L425.639 1134.24V1136.16L424.559 1138.44L422.639 1140.24V1141.92L423.119 1143.84L424.439 1143.72H426.119L427.319 1144.32L428.759 1144.08L430.919 1141.92L433.319 1141.08L451.919 1144.32L455.639 1145.4L455.519 1148.64L456.239 1150.32L456.479 1153.8L457.079 1155.36L457.199 1159.56L455.279 1166.52L455.759 1169.64L459.599 1169.28L463.319 1165.92L465.119 1164.96L467.039 1164.36L468.719 1164.84L470.279 1165.92L472.559 1166.4L474.119 1168.08L474.719 1176.12L475.799 1178.16L479.279 1178.04L480.839 1179L482.519 1179.6L482.879 1179L483.599 1178.28L487.919 1179.6L491.399 1183.2L492.479 1184.76L494.399 1185.36L496.559 1185.24L495.719 1192.56L497.039 1196.64Z" fill="#119706" stroke="black" stroke-width="2" stroke-linecap="round" stroke-linejoin="round"/>
<path d="M1047.36 450.961L1046.64 452.641L890.879 804.841L889.559 807.841L593.999 809.281H591.839L553.919 840.721L551.759 858.241L551.279 861.961L529.079 849.841L508.199 864.361L464.159 893.401L452.879 905.881L432.239 928.681L376.079 882.961H280.559L280.679 854.401V838.681L287.159 662.521L285.239 659.761L273.359 639.961H300.719H327.839H350.879H380.039H384.119H398.399L397.319 623.041L396.719 613.921H396.959L399.359 614.761L460.679 638.041L615.959 620.401L1034.16 327.961H1034.28L1035 335.161L1036.56 349.801L1038.12 364.321L1038.84 370.921L1040.16 383.761L1041.6 396.721L1042.92 409.561L1044.36 422.401L1045.68 435.241L1047.12 448.081L1047.36 450.961Z" fill="#EBFFE8" stroke="black" stroke-width="2" stroke-linecap="round" stroke-linejoin="round"/>
<path d="M790.319 1241.76L790.559 1241.52L791.039 1240.92L794.639 1237.32L793.559 1205.04L784.079 1184.16L803.399 1157.76L800.999 1150.68L815.039 1136.4L821.279 1129.32L837.719 1110.96L860.039 1086.24L843.359 1067.64L829.919 1052.64L776.039 1059.72L776.279 1059.12L889.559 807.841L890.879 804.841L1046.64 452.641L1047.36 450.961L1048.44 460.921L1049.88 473.761L1051.2 486.601L1052.64 499.321L1053.96 512.161L1055.4 524.881L1056.72 537.601L1058.16 550.321L1059.48 563.161L1062.24 588.601L1063.68 601.201L1066.44 626.641L1067.76 639.241L1069.2 651.961L1070.52 664.561L1071.96 677.281L1072.56 683.401L1074 696.841L1075.56 710.281L1076.16 716.401L1077.48 727.681L1078.8 740.761L1080.24 753.721L1081.68 766.801L1083 779.761L1084.44 792.721L1087.2 818.761L1088.64 831.721L1090.08 846.001L1090.8 852.001L1091.4 858.001L1093.68 879.721L1094.64 889.321L1095.6 898.921L1097.64 918.001L1098.6 927.601L1099.56 937.201L1100.64 946.681L1101.6 956.281L1102.56 965.761L1104.6 984.841L1105.56 994.081L1106.52 1003.44L1107.48 1012.68L1108.44 1021.92L1109.4 1031.16L1111.32 1049.64L1112.28 1058.88L1113.24 1068.12L1115.16 1086.6L1116.24 1095.84L1117.2 1105.08L1118.16 1114.2L1119.12 1123.44L1120.08 1132.68L1120.44 1136.76L1121.28 1138.44L1122.24 1140L1126.08 1142.76L1129.68 1145.16L1134 1148.16L1137.84 1150.92L1141.8 1153.68L1145.76 1156.44L1146.72 1157.4L1146.84 1158.72L1146.36 1161.72L1144.56 1171.44L1142.76 1181.04L1140.96 1190.64L1139.16 1200.24L1137.36 1210.08L1135.56 1220.04L1133.64 1229.88L1131.6 1241.16L1131.48 1241.64V1241.88L1131.36 1242H1131.24L1131 1241.88H1115.64H1102.56H1089.72H1082.64H1075.08H1048.08H1017.84L985.559 1241.76H968.999H952.199H886.559H856.319H842.399H829.319H820.919H799.319H790.319Z" fill="#EBFFE8" stroke="black" stroke-width="2" stroke-linecap="round" stroke-linejoin="round"/>
<path d="M776.04 1059.72L829.92 1052.64L843.36 1067.64L860.04 1086.24L837.72 1110.96L821.28 1129.32L815.04 1136.4L801 1150.68L803.4 1157.76L784.08 1184.16L793.56 1205.04L794.64 1237.32L791.04 1240.92L790.56 1241.52L790.32 1241.76H788.76H756.48L757.08 1232.52L758.4 1225.56L758.16 1222.2L755.76 1221.24L753.96 1222.44L747.96 1229.64L746.52 1232.28V1235.28L748.08 1241.64L749.16 1247.28L724.92 1248.36L720.24 1249.32L718.32 1250.16L712.68 1253.4L708.96 1254.36L697.68 1253.28L686.28 1254.96L682.32 1254.84L680.04 1254.24L676.56 1251.96L674.52 1251L673.8 1250.88L672 1251.24H671.16L662.76 1247.88L661.44 1247.64L656.76 1248L654 1247.52L644.04 1247.28L642.6 1247.64L640.68 1247.16L639.12 1247.4L635.76 1248.6L627.84 1196.76L624.96 1192.92L618.84 1188L616.92 1185.96L617.28 1185.24V1182.48L618.36 1180.68L618.48 1177.92L618.96 1175.04L618.72 1171.68L617.16 1168.68L614.4 1166.4L611.16 1165.2L610.8 1163.64L611.64 1162.2L610.44 1159.8L610.68 1158.24L611.28 1156.8L611.76 1153.92L612.36 1152.84L613.2 1151.88L614.04 1149.6L613.8 1147.44L612.6 1146.72L608.64 1145.52L607.68 1143.12L609.12 1141.92L610.8 1141.44H612.84L617.88 1138.68L618.72 1136.88L621 1135.32V1132.8L623.28 1132.68L624.48 1131.24L624.6 1129.92L624 1128.96L622.56 1129.32L621 1129.92L619.92 1128.6L617.04 1130.04L615.48 1129.56L613.92 1129.32L611.04 1128L609 1125L607.56 1122L607.8 1118.52L606.72 1116.84L605.28 1115.04L603.36 1114.2L601.56 1114.08L600.84 1112.76L600.36 1111.32L598.2 1108.68L596.16 1107.36L595.56 1105.08L596.52 1103.76L597.24 1102.32L595.92 1099.92L596.28 1098.12L596.16 1096.32L595.68 1093.56V1090.68L597.24 1078.32L596.64 1075.8L595.08 1074.24L594.24 1072.08L595.8 1063.32L596.64 1061.52L597.12 1059.48L595.8 1055.76L596.52 1052.16L596.04 1048.56L589.56 1034.88L587.64 1024.56L586.08 1021.2L586.32 1017.84L587.52 1014.48L618.72 1023.6L660.48 1035.48L720 1031.64L720.72 1032.24L776.04 1059.72Z" fill="#EBFFE8" stroke="black" stroke-width="2" stroke-linecap="round" stroke-linejoin="round"/>
<path d="M776.04 1059.72L720.72 1032.24L720 1031.64L660.48 1035.48L618.72 1023.6L587.52 1014.48L598.08 954.12L595.08 956.16L592.2 956.04L585.12 959.04L582 961.32L578.88 965.04L576.24 966.96L578.76 969.48L575.4 974.04L574.44 976.2L571.8 975.96L566.16 977.76L563.64 979.44L561.36 979.2L560.52 978.24L559.56 978.6L556.8 978.12L550.56 977.88L547.68 978.12L547.2 981.24L541.68 980.88L541.56 985.92L538.44 987.6L537.12 990.6L539.16 992.52L539.64 993.6L542.04 997.92L545.76 1005L543.6 1004.88L546.72 1009.92L547.2 1011.24L550.92 1015.08L552.72 1017.72L553.68 1019.4L553.8 1020.24L553.2 1020.96L554.64 1023.72L554.04 1026.84L551.04 1027.68L547.92 1029.72L545.04 1031.52L548.88 1032.48L549.48 1036.44L545.52 1038.12L547.2 1043.76L544.56 1049.4L543.84 1063.68L543.72 1070.4L539.52 1075.92L521.76 1074.36L506.4 1079.76L492.36 1075.32L476.64 1069.44L467.28 1060.44L457.56 1052.16L444.36 1038.24L447.12 1003.56H446.76L448.08 986.28L450.84 957.84L432.24 928.68L452.88 905.88L464.16 893.4L508.2 864.36L529.08 849.84L551.28 861.96L551.76 858.24L553.92 840.72L591.84 809.28H594L889.56 807.84L776.28 1059.12L776.04 1059.72Z" fill="#EBFFE8" stroke="black" stroke-width="2" stroke-linecap="round" stroke-linejoin="round"/>
</g>
<defs>
<clipPath id="clip0_190_51">
<rect width="1200" height="1320" fill="white"/>
</clipPath>
</defs>
</svg>
